 <svg  version="1.0" xmlns="http://www.w3.org/2000/svg"  width="900.000000pt" height="900.000000pt" viewBox="0 0 900.000000 900.000000"  preserveAspectRatio="xMidYMid meet">  <g transform="translate(0.000000,900.000000) scale(0.100000,-0.100000)" fill="#616161" stroke="none"> <path d="M5685 7980 c-114 -22 -182 -39 -222 -56 -17 -8 -35 -14 -39 -14 -5 0 -53 -22 -109 -50 -122 -60 -224 -136 -285 -212 -47 -58 -120 -194 -120 -223 0 -9 -7 -29 -15 -45 -14 -27 -17 -28 -122 -35 -60 -3 -115 -7 -123 -8 -19 -3 -27 -151 -9 -173 8 -10 39 -14 119 -14 77 0 109 -4 112 -12 6 -15 -10 -660 -20 -858 l-7 -135 -62 -8 c-35 -4 -74 -12 -88 -17 -25 -9 -26 -13 -23 -77 l3 -68 290 -7 c160 -4 385 -13 500 -20 116 -7 264 -13 330 -13 l120 0 7 59 c9 68 0 86 -43 86 -15 0 -40 5 -56 11 -15 6 -50 15 -78 20 -27 5 -63 14 -79 21 l-29 12 6 130 c16 341 29 573 40 696 l12 135 100 -3 c55 -1 139 -5 187 -8 103 -6 100 -9 112 112 6 56 4 75 -8 86 -11 11 -55 16 -180 22 -91 3 -178 11 -192 17 l-27 10 6 87 c7 103 27 188 62 257 27 54 99 135 119 135 7 0 28 -21 47 -47 77 -108 151 -169 254 -209 41 -16 74 -19 185 -18 123 0 139 2 180 25 54 30 110 100 110 139 0 41 -36 105 -79 141 -119 98 -332 149 -621 147 -122 0 -202 -6 -265 -18z"/> <path d="M1050 7773 c-36 -9 -79 -22 -97 -29 -17 -8 -35 -14 -40 -14 -17 0 -133 -86 -151 -111 -68 -97 -68 -171 2 -247 70 -78 253 -111 416 -76 130 28 201 65 278 142 l62 62 0 70 c0 57 -4 77 -22 100 -73 100 -269 144 -448 103z"/> <path d="M3520 7378 c-149 -18 -258 -59 -389 -147 -37 -24 -78 -55 -94 -69 -16 -15 -30 -22 -35 -16 -5 5 -16 44 -26 87 -15 67 -22 79 -46 92 -37 19 -70 19 -106 0 -16 -8 -39 -15 -50 -15 -12 0 -35 -7 -50 -15 -16 -8 -37 -15 -46 -15 -10 0 -35 -6 -55 -14 -21 -7 -65 -22 -98 -31 -33 -10 -74 -24 -92 -32 -17 -7 -36 -13 -42 -13 -28 0 -409 -134 -425 -150 -16 -15 -17 -25 -10 -67 l9 -48 105 3 c58 2 111 -1 118 -6 13 -9 19 -36 42 -202 6 -47 18 -128 26 -180 8 -53 14 -112 14 -131 0 -20 6 -80 14 -135 8 -54 16 -133 18 -174 l3 -74 -45 -18 c-25 -9 -56 -19 -70 -23 -53 -11 -61 -26 -49 -91 6 -32 14 -62 17 -65 4 -4 34 -3 67 1 91 13 311 38 485 54 367 36 487 46 519 46 l34 0 -5 64 c-3 35 -9 69 -12 75 -4 6 -34 11 -66 11 -75 0 -87 12 -94 97 -3 38 -13 136 -21 218 -8 83 -15 177 -15 210 0 33 -7 119 -15 190 -21 187 -25 170 53 206 72 34 105 45 194 62 47 9 63 8 100 -7 87 -33 118 -99 118 -254 0 -53 5 -149 10 -212 5 -63 13 -192 16 -285 8 -191 8 -189 -62 -198 -95 -12 -119 -46 -94 -130 l11 -39 57 5 c31 3 275 11 542 17 267 7 491 14 498 16 8 2 12 25 12 69 0 75 -5 80 -106 91 -29 4 -58 12 -63 18 -5 6 -11 198 -14 426 -6 439 -9 470 -56 555 -49 87 -153 171 -261 210 -111 40 -304 53 -470 33z"/> <path d="M6790 7201 c-130 -29 -211 -56 -281 -92 -20 -11 -49 -25 -64 -33 -54 -28 -146 -108 -190 -165 -49 -62 -85 -123 -85 -143 0 -7 -7 -26 -16 -43 -23 -44 -23 -272 0 -346 39 -122 84 -201 164 -283 155 -160 378 -269 672 -329 250 -51 496 -61 680 -27 146 27 196 42 297 92 72 35 104 59 178 133 147 147 204 296 191 495 -7 111 -38 192 -116 305 -37 54 -152 161 -222 208 -75 49 -220 124 -258 132 -16 4 -32 11 -35 16 -4 5 -16 9 -28 9 -12 0 -35 7 -51 15 -15 8 -38 15 -50 15 -11 0 -41 6 -66 14 -25 8 -86 22 -136 30 -126 22 -479 20 -584 -3z m623 -187 c28 -20 52 -50 72 -89 29 -57 30 -67 33 -209 4 -144 -4 -222 -39 -386 -6 -25 -14 -64 -19 -88 -33 -151 -100 -273 -176 -317 -51 -30 -137 -34 -190 -9 -50 24 -100 87 -121 153 -41 128 -8 578 53 719 8 18 14 39 14 47 0 49 116 198 163 209 12 2 55 3 95 2 62 -3 79 -7 115 -32z"/> <path d="M1505 7175 c-16 -7 -50 -21 -75 -30 -25 -9 -60 -23 -78 -31 -18 -8 -39 -14 -46 -14 -8 0 -27 -7 -42 -15 -16 -8 -36 -15 -44 -15 -9 0 -20 -4 -25 -8 -9 -7 -34 -17 -167 -68 -127 -48 -170 -65 -221 -90 -16 -8 -35 -14 -42 -14 -7 0 -26 -6 -42 -14 -15 -8 -50 -24 -78 -35 -49 -19 -50 -21 -53 -64 -4 -63 7 -68 139 -70 l112 -2 24 -100 c13 -55 28 -120 35 -145 6 -25 14 -67 18 -95 9 -58 25 -143 45 -236 8 -37 15 -80 15 -95 0 -16 7 -51 15 -78 8 -27 15 -69 15 -92 0 -42 -2 -44 -46 -64 -26 -11 -53 -20 -60 -20 -8 0 -23 -9 -34 -20 -16 -16 -18 -28 -13 -72 3 -29 9 -57 14 -62 8 -9 66 -2 229 28 139 25 205 37 250 47 25 5 74 13 110 18 94 13 194 30 280 46 42 8 93 15 115 15 49 0 109 16 123 33 8 9 7 29 -1 67 l-12 55 -83 3 c-75 3 -82 5 -86 25 -2 12 -12 67 -21 122 -9 55 -23 135 -31 178 -8 42 -14 92 -14 110 0 18 -5 48 -10 67 -6 19 -15 71 -20 115 -5 44 -14 109 -19 145 -6 36 -18 128 -26 205 -29 258 -27 249 -55 261 -45 21 -64 23 -95 9z"/> <path d="M2540 4199 c-19 -5 -60 -16 -90 -25 -30 -9 -80 -23 -110 -32 -30 -8 -73 -21 -95 -27 -22 -7 -67 -21 -100 -31 -33 -9 -98 -30 -145 -45 -47 -15 -154 -49 -238 -75 l-154 -49 6 -48 c3 -26 11 -60 18 -75 13 -27 14 -27 120 -29 59 0 112 -4 117 -8 6 -3 11 -21 11 -38 0 -18 7 -57 15 -87 8 -30 15 -71 15 -90 0 -19 6 -68 14 -110 20 -102 45 -247 50 -290 2 -19 9 -64 15 -100 6 -36 18 -108 27 -160 8 -52 22 -128 30 -168 8 -40 14 -85 14 -100 0 -15 6 -58 14 -97 15 -71 31 -170 46 -280 10 -70 26 -179 44 -285 14 -85 12 -100 -14 -100 -10 0 -22 -4 -25 -10 -3 -5 -23 -14 -44 -20 -62 -16 -70 -33 -57 -112 6 -37 16 -72 21 -77 11 -11 34 -8 180 19 33 6 94 15 135 20 41 5 82 11 90 14 8 4 56 10 105 16 50 5 124 14 165 19 41 6 140 18 219 28 l143 18 -6 68 c-9 97 -14 104 -86 109 -33 2 -65 9 -70 14 -5 5 -14 52 -19 104 -5 52 -14 131 -20 175 -5 44 -17 143 -26 220 -9 77 -22 196 -30 265 -21 179 -25 247 -19 265 6 15 89 80 134 103 14 8 52 23 85 33 78 26 125 18 168 -26 41 -42 57 -100 67 -240 5 -60 13 -164 19 -230 31 -353 43 -516 39 -570 l-3 -60 -45 -14 c-95 -28 -95 -29 -95 -109 0 -97 6 -102 115 -91 168 16 549 39 734 44 137 3 192 8 198 17 14 23 9 144 -6 157 -8 7 -41 17 -74 24 -34 7 -63 15 -65 17 -10 10 -29 357 -37 680 -9 330 -15 394 -51 489 -16 44 -63 114 -104 155 -31 31 -137 106 -150 106 -4 0 -21 6 -38 14 -114 49 -301 60 -462 27 -88 -18 -113 -26 -185 -60 -54 -25 -171 -114 -222 -170 -58 -62 -78 -66 -78 -13 0 20 -7 93 -15 162 -9 69 -21 163 -26 210 -6 47 -14 153 -19 235 -8 148 -17 250 -25 291 -3 14 -17 25 -43 32 -22 7 -41 12 -43 11 -2 0 -20 -5 -39 -10z"/> <path d="M5195 3531 c-343 -45 -622 -231 -751 -500 -47 -97 -64 -170 -71 -305 -10 -212 49 -411 173 -581 103 -141 243 -243 429 -315 210 -80 591 -102 820 -46 260 63 455 204 581 421 68 117 124 328 124 470 0 130 -43 284 -113 400 -52 86 -204 239 -278 280 -159 87 -228 114 -409 160 -74 19 -402 29 -505 16z m358 -206 c40 -23 107 -109 107 -137 0 -7 8 -33 16 -58 14 -37 16 -89 16 -285 -1 -132 -6 -274 -12 -315 -7 -41 -15 -104 -20 -140 -7 -67 -21 -129 -46 -215 -56 -187 -169 -274 -282 -216 -43 22 -62 41 -92 96 -35 63 -49 129 -60 287 -12 160 1 534 20 598 5 19 10 48 10 65 0 33 31 140 57 195 25 55 52 89 96 121 53 39 129 41 190 4z"/> <path d="M7459 3256 c-2 -2 -76 -9 -164 -15 -88 -7 -196 -16 -240 -21 -44 -6 -136 -14 -204 -20 -151 -12 -171 -24 -171 -100 0 -51 21 -80 58 -80 11 0 33 -5 49 -11 15 -7 44 -15 63 -18 27 -5 36 -12 38 -30 5 -33 -22 -241 -69 -526 -6 -38 -13 -86 -15 -105 -4 -34 -21 -140 -45 -285 -6 -38 -15 -99 -19 -135 -4 -36 -12 -92 -18 -125 -14 -75 -31 -180 -43 -265 -5 -36 -13 -85 -18 -110 -12 -52 -31 -167 -38 -225 -6 -51 -25 -65 -84 -65 -80 0 -95 -11 -103 -71 -4 -28 -10 -64 -13 -79 -4 -24 -1 -29 28 -39 17 -6 45 -11 60 -11 16 0 64 -6 106 -14 43 -8 121 -21 173 -30 52 -9 122 -21 155 -27 33 -6 83 -15 110 -19 28 -4 70 -12 95 -18 118 -28 190 -42 242 -48 54 -6 57 -6 62 17 2 13 9 48 15 76 6 29 8 58 6 66 -3 7 -29 23 -58 37 -77 36 -107 59 -107 83 0 12 7 56 15 97 37 176 60 293 76 390 17 103 25 105 110 26 47 -43 98 -79 148 -102 152 -72 184 -79 386 -79 194 0 224 6 366 68 321 141 549 520 549 915 0 77 -5 136 -15 168 -8 27 -15 57 -15 66 0 15 -46 117 -86 188 -75 136 -326 300 -509 331 -27 4 -68 13 -90 18 -22 6 -84 11 -139 11 -126 0 -246 -26 -353 -77 -49 -24 -57 -12 -49 75 5 69 4 78 -16 99 -20 21 -30 23 -123 23 -56 0 -104 -2 -106 -4z m466 -404 c110 -39 168 -97 207 -207 48 -132 -1 -434 -105 -645 -46 -94 -154 -199 -228 -222 -31 -10 -69 -18 -85 -18 -32 0 -112 24 -159 48 -70 35 -76 55 -51 165 8 34 21 96 30 137 16 84 38 191 60 295 8 39 21 104 30 145 9 41 20 98 26 125 6 28 15 75 20 105 12 77 32 90 129 90 48 0 95 -7 126 -18z"/> <path d="M990 3170 c-97 -10 -268 -50 -327 -76 -17 -8 -36 -14 -42 -14 -27 0 -207 -90 -286 -143 -120 -81 -240 -227 -260 -316 -3 -17 -11 -33 -16 -36 -5 -4 -9 -53 -9 -111 0 -79 5 -120 21 -167 61 -182 186 -295 382 -347 63 -17 109 -20 357 -20 296 0 327 -4 407 -48 85 -47 83 -200 -5 -258 -87 -59 -254 -104 -386 -104 -63 0 -75 3 -94 23 -12 13 -22 27 -22 32 0 8 -37 90 -71 158 -10 21 -19 43 -19 50 0 7 -10 24 -23 39 -20 25 -25 27 -57 18 -19 -5 -55 -14 -80 -21 -25 -7 -59 -18 -77 -25 -17 -8 -42 -14 -55 -14 -35 -1 -94 -34 -89 -51 2 -8 8 -32 13 -54 10 -42 27 -104 52 -194 9 -29 16 -63 16 -75 0 -40 36 -84 77 -95 159 -39 598 -6 768 59 11 5 52 18 90 30 76 23 97 32 195 80 154 76 304 206 347 301 55 122 54 118 54 243 1 99 -3 134 -21 186 -64 192 -171 283 -390 334 -46 11 -146 16 -345 20 -276 5 -352 13 -415 45 -43 21 -63 58 -63 117 0 44 5 59 31 91 16 21 45 45 64 54 110 54 174 71 275 77 l72 4 26 -54 c14 -29 35 -69 47 -88 11 -19 32 -57 46 -83 24 -47 27 -49 61 -44 50 6 150 27 189 39 18 5 58 12 88 15 35 4 58 11 61 21 3 7 0 52 -6 97 -7 46 -16 126 -19 177 l-7 93 -37 18 c-30 15 -70 19 -240 22 -112 2 -237 0 -278 -5z"/> </g> </svg> 